PathFileType	4	(X/Y/Z)	S01_0017_Gait_markers.trc
DataRate	CameraRate	NumFrames	NumMarkers	Units	OrigDataRate	OrigDataStartFrame	OrigNumFrames
250.000000	250.000000	4	54	mm	250.000000	0	364
Frame#	Time	HEAD_ANT			R_HEAD			L_HEAD			C7			R_BACK			L_BACK			STERNUM			R_ACROMION			R_HUM_PROX			R_HUM_ANT			R_HUM_POST			R_ELBOW_LAT			R_ELBOW_MED			R_FOREARM			R_WIRST_LAT			R_WRITS_MED			R_HAND			L_ACROMION			L_HUM_PROX			L_HUM_ANT			L_HUM_POST			L_ELBOW_LAT			L_ELBOW_MED			L_FOREARM			L_WRIST_LAT			L_WIRST_MED			L_HAND			R_ILIAC			SACRUM			L_ILIAC			R_GTROCH			R_THIGH__1			R_THIGH_2			R_THIGH_3			R_THIGH_4			R_SHANK_1			R_SHANK_2			R_SHANK_3			R_SHANK_4			R_HEEL			R_FOOT_LAT			R_FOOT_MED			L_GTROCH			L_THIGH_1			L_THIGH_2			L_THIGH_3			L_THIGH_4			L_SHANK_1			L_SHANK_2			L_SHANK_3			L_SHANK_4			L_HEEL			L_FOOT_LAT			L_FOOT_MED			
		X1	Y1	Z1	X2	Y2	Z2	X3	Y3	Z3	X4	Y4	Z4	X5	Y5	Z5	X6	Y6	Z6	X7	Y7	Z7	X8	Y8	Z8	X9	Y9	Z9	X10	Y10	Z10	X11	Y11	Z11	X12	Y12	Z12	X13	Y13	Z13	X14	Y14	Z14	X15	Y15	Z15	X16	Y16	Z16	X17	Y17	Z17	X18	Y18	Z18	X19	Y19	Z19	X20	Y20	Z20	X21	Y21	Z21	X22	Y22	Z22	X23	Y23	Z23	X24	Y24	Z24	X25	Y25	Z25	X26	Y26	Z26	X27	Y27	Z27	X28	Y28	Z28	X29	Y29	Z29	X30	Y30	Z30	X31	Y31	Z31	X32	Y32	Z32	X33	Y33	Z33	X34	Y34	Z34	X35	Y35	Z35	X36	Y36	Z36	X37	Y37	Z37	X38	Y38	Z38	X39	Y39	Z39	X40	Y40	Z40	X41	Y41	Z41	X42	Y42	Z42	X43	Y43	Z43	X44	Y44	Z44	X45	Y45	Z45	X46	Y46	Z46	X47	Y47	Z47	X48	Y48	Z48	X49	Y49	Z49	X50	Y50	Z50	X51	Y51	Z51	X52	Y52	Z52	X53	Y53	Z53	X54	Y54	Z54	

1	0	74.54050445556641	1736.433349609375	-358.9174499511715	14.17440223693848	1687.887817382812	-282.0782470703121	15.09409618377686	1689.631958007812	-429.7379760742184	-126.4284973144531	1521.794677734375	-363.5353698730465	-206.6768188476562	1325.976440429688	-300.1847839355466	-197.8968658447266	1330.941040039062	-441.0239562988278	45.02435302734375	1355.916870117188	-353.0844726562497	-61.1606559753418	1471.823486328125	-186.6880187988278	-119.5485458374023	1312.928344726562	-100.959907531738	-65.87016296386719	1223.058959960938	-92.06165313720676	-186.2728881835938	1233.955078125	-99.18807220458957	-148.5251007080078	1124.975341796875	-89.43432617187474	-155.658935546875	1122.384643554688	-170.1794891357419	-58.33030700683594	938.3051147460938	-71.47965240478494	-15.55582237243652	870.6532592773438	-105.1506271362303	-88.31899261474609	849.9791870117188	-80.98713684082013	-24.42226409912109	783.9755859375	-49.28593444824202	-40.5808219909668	1478.1845703125	-525.0239868164059	-49.70933151245117	1313.574462890625	-623.5915527343747	14.70101547241211	1235.168701171875	-615.891906738281	-103.8747634887695	1234.345947265625	-655.8863525390623	-39.6744499206543	1132.578247070313	-659.1501464843748	-97.72528839111328	1122.447387695313	-607.3746948242185	86.99871826171875	973.4953002929689	-620.533752441406	123.7442779541016	921.9684448242189	-563.7424316406248	86.65345001220703	889.0410156250001	-627.627014160156	170.2870178222656	848.8240356445314	-604.3428955078123	-61.46315002441406	1072.034545898438	-191.2990112304685	-192.1460266113281	1046.864868164062	-353.9493408203123	-76.15613555908203	1068.169189453125	-534.5526733398435	-97.49038696289062	920.5249633789062	-172.7902374267576	21.18463516235352	652.477294921875	-192.130889892578	70.62622833251953	683.7796630859375	-190.1537170410155	102.9523239135742	586.2144775390625	-224.0431976318358	40.00704574584961	573.974853515625	-211.5402679443358	64.42348480224609	355.7937622070313	-206.9716339111327	123.0130767822266	344.6871643066407	-218.7364349365234	133.9167785644531	260.3257446289063	-232.5649871826171	69.85186004638672	255.6235809326172	-226.4753723144531	75.63127136230469	38.91297531127937	-310.3694458007812	235.3245239257812	39.37537384033208	-219.6744079589844	286.6918334960938	68.07102966308601	-304.8622436523438	-121.1584243774414	957.3422241210939	-534.6598510742185	-85.90879058837891	662.7423706054689	-512.5640869140624	-135.7738800048828	692.2992553710939	-524.9187011718749	-164.4418640136719	596.6866455078126	-491.7567443847655	-102.9271469116211	586.6434936523439	-486.4295043945311	-199.5766448974609	328.5172729492189	-465.6802978515624	-259.5081787109375	318.8430480957032	-465.3063354492187	-278.4379577636719	235.6733703613282	-443.9051208496093	-214.9038391113281	230.1841888427735	-438.1893920898437	-350.8514404296875	60.38146209716805	-363.6186218261719	-180.7482452392578	20.12499618530283	-437.4859313964844	-142.1637725830078	27.54532623291023	-331.7044372558594	
2	0.004	79.63956451416016	1735.480346679688	-358.564544677734	19.38068008422852	1686.782104492188	-281.8070068359371	19.9716625213623	1688.551025390625	-429.4429321289059	-121.4754257202148	1520.661254882812	-363.357513427734	-201.929443359375	1324.85595703125	-300.144592285156	-193.0732269287109	1329.929077148438	-440.8724670410153	50.03810119628906	1354.630126953125	-352.8984069824216	-56.100341796875	1470.65087890625	-186.4254760742184	-114.5606307983398	1311.926513671875	-100.8193359374997	-60.90906524658203	1221.947998046875	-91.85982513427707	-181.5829162597656	1232.913940429688	-99.04885864257785	-143.568603515625	1123.8193359375	-89.36469268798803	-150.6157531738281	1121.249877929688	-170.0908508300779	-53.63428497314453	937.1488037109375	-71.35864257812479	-10.75509738922119	869.5702514648438	-104.7413330078123	-83.61532592773438	848.8588256835938	-80.92944335937482	-19.87435340881348	782.7574462890625	-49.25960540771467	-35.43877792358398	1477.19970703125	-524.8329467773434	-44.5117301940918	1312.444213867188	-623.3908691406247	20.09418678283691	1234.375610351563	-615.6934814453123	-98.43391418457031	1233.217895507813	-655.3449096679685	-34.11710739135742	1131.507080078125	-658.934875488281	-92.19510650634766	1121.3359375	-607.0793457031248	92.76945495605469	972.7388305664064	-619.9045410156248	129.7168579101562	921.3922729492189	-562.9196166992185	92.80344390869141	888.3702392578126	-626.861389160156	176.4300079345703	848.3496704101564	-603.3244628906248	-56.72850036621094	1070.7919921875	-191.675354003906	-186.6069030761719	1045.587890625	-353.1571960449216	-70.91487121582031	1067.114868164063	-534.5165405273435	-92.37554168701172	919.1688842773438	-172.9146728515623	25.44875907897949	651.0220336914062	-192.2711944580077	75.02103424072266	682.4185180664062	-189.6261291503905	107.1123275756836	584.4426879882812	-223.839874267578	44.29845809936523	572.4861450195312	-211.4438018798827	73.14731597900391	354.4378967285157	-207.0506591796874	131.9820251464844	344.5677795410157	-218.6663055419921	144.5165252685547	260.5652465820313	-233.1388397216796	80.60231018066406	254.3461456298829	-227.006607055664	90.76255798339844	38.21873092651374	-311.7101440429688	250.4599609375	41.36508560180669	-220.9024810791016	301.2998962402344	71.08589935302741	-306.0322265625	-116.4296417236328	956.6387329101564	-534.615783691406	-82.70623016357422	662.0767822265626	-512.6249389648436	-132.5950775146484	692.0029907226564	-525.1119384765624	-162.2776031494141	596.5726928710939	-491.4182128906249	-100.2130432128906	586.1376342773439	-486.5188903808593	-198.2532958984375	328.4452514648439	-465.6412353515624	-258.0399475097656	319.0677795410157	-465.0682678222656	-277.6104431152344	236.0327758789063	-443.7805175781249	-214.1151428222656	230.1375579833985	-438.2418823242187	-350.7445678710938	61.00932312011727	-363.6255187988281	-180.7837219238281	20.10003280639658	-437.427490234375	-142.1507568359375	27.54640960693367	-331.7255554199219	
3	0.008	84.63162231445312	1734.575927734375	-358.174652099609	24.40296173095703	1685.553955078125	-281.4885864257809	25.06184196472168	1687.50439453125	-429.1699523925777	-116.3220977783203	1519.629760742188	-363.0108947753903	-196.7814636230469	1323.841186523438	-299.9601135253903	-187.9204254150391	1328.890747070312	-440.5831604003903	55.09093475341797	1353.567749023438	-352.6194152832028	-51.08635330200195	1469.530151367188	-186.1938781738278	-109.6004180908203	1310.700927734375	-100.5980834960935	-55.94759750366211	1220.785034179688	-91.6109313964841	-176.5263519287109	1231.73046875	-99.00308227539035	-138.479248046875	1122.65771484375	-89.12551879882787	-145.6094818115234	1120.051391601562	-170.1553039550779	-48.74987411499023	935.8296508789062	-71.33656311035135	-5.906899929046631	868.3331298828125	-104.7878417968748	-78.70610046386719	847.6207885742188	-80.80908203124982	-14.97365856170654	781.5122680664062	-49.22743225097639	-30.3372974395752	1476.078002929688	-524.6139526367184	-39.34837341308594	1311.436645507813	-623.1695556640622	25.48982048034668	1233.379272460938	-615.4705810546873	-93.08245086669922	1232.169189453125	-655.084045410156	-28.66237640380859	1130.522216796875	-658.6569824218748	-86.62947082519531	1119.95166015625	-606.7370605468748	98.43584442138672	972.2804565429689	-619.9116210937498	135.3011474609375	920.9357299804689	-562.383117675781	98.88372039794922	887.5894775390626	-626.1387939453123	182.532470703125	847.9573364257814	-602.4067382812498	-51.03741455078125	1069.83349609375	-191.6148223876951	-181.7519073486328	1044.680297851562	-353.0065002441404	-65.81788635253906	1066.1416015625	-534.6726074218748	-87.27133178710938	918.0116577148438	-173.1092834472654	29.7364673614502	649.5662841796875	-192.1905212402342	79.52146148681641	680.7785034179688	-188.9271545410155	111.5006484985352	582.9171142578125	-223.4474945068358	48.56882858276367	571.0718994140625	-211.3032836914061	81.80738067626953	352.9673461914063	-207.183853149414	140.6657562255859	344.4374694824219	-219.3463439941405	155.0722503662109	260.6825256347657	-233.7549133300781	91.42610931396484	252.8142547607422	-227.7147979736328	105.7925415039062	37.49616241455085	-312.9063720703125	265.4678039550781	43.43827438354497	-222.0701599121094	315.5721130371094	74.25144958496101	-307.28662109375	-111.6101455688477	955.8642578125001	-534.5408935546873	-79.81339263916016	661.6390991210939	-513.0288085937499	-129.3389739990234	691.6618041992189	-525.3496704101561	-159.6659088134766	596.3204956054689	-491.1551818847655	-97.45408630371094	585.5768432617189	-487.0534667968749	-196.8066101074219	328.243621826172	-465.5422363281249	-256.6118469238281	319.4935302734376	-465.1606140136718	-276.7830810546875	236.3378143310548	-443.7298583984374	-213.1571960449219	230.2748413085938	-438.2609252929687	-350.6321716308594	61.71724319458016	-363.5866394042969	-180.8302154541016	20.10291099548349	-437.4291687011719	-142.1536865234375	27.54528808593757	-331.7264709472656	
4	0.012	89.74192810058594	1733.386596679688	-357.9181213378902	29.51579093933105	1684.502319335938	-281.1697387695309	30.26260566711426	1686.562622070312	-428.8546752929684	-111.4136123657227	1518.631591796875	-362.8391723632809	-191.8042144775391	1322.763916015625	-299.6550598144528	-183.0434875488281	1327.93115234375	-440.2893066406247	60.08604049682617	1352.317138671875	-352.5799865722653	-46.11948776245117	1468.283447265625	-186.0776672363278	-104.6575698852539	1309.476806640625	-100.5327682495114	-51.01620864868164	1219.57861328125	-91.50752258300754	-171.6524810791016	1230.54638671875	-98.85218048095676	-133.3933258056641	1121.322631835938	-89.14930725097631	-144.6552124023438	1119.420166015625	-172.0183105468747	-43.7818717956543	934.6196899414062	-71.12557983398416	-0.9853069186210632	866.9328002929688	-104.4886550903318	-73.88524627685547	846.48095703125	-80.69207763671857	-10.19946956634521	780.2173461914062	-49.08215332031233	-25.42226409912109	1474.939697265625	-524.4302978515622	-34.0476188659668	1310.369873046875	-622.9797363281247	30.67197227478027	1232.389526367188	-615.1352539062498	-87.95652770996094	1231.0927734375	-654.9620971679685	-23.25396347045898	1129.331176757813	-658.385314941406	-80.74053192138672	1118.757690429688	-606.2855224609373	104.3785018920898	971.5059204101564	-619.2182006835935	141.1176452636719	920.3839111328126	-561.6556396484373	104.9604339599609	886.8533935546876	-625.4821777343748	188.6100006103516	847.5191650390626	-601.5017089843748	-45.64998626708984	1068.345092773438	-191.1613311767576	-176.7148742675781	1043.62744140625	-352.9625854492185	-60.39365005493164	1065.0322265625	-534.5011596679685	-82.20122528076172	916.824951171875	-173.2643890380857	33.99679183959961	647.8922729492188	-192.1623382568358	83.46391296386719	679.2244262695312	-189.2142181396483	115.8003387451172	581.2491455078125	-223.1559295654295	52.88738632202148	569.5238037109375	-211.5136108398436	90.59103393554688	351.9547119140626	-207.1677856445312	149.6877288818359	344.4545288085938	-219.5818481445312	165.7186126708984	261.3345031738282	-233.6753997802734	102.1464767456055	251.9042358398438	-227.9120483398437	120.4473037719727	37.32020568847663	-313.99853515625	280.245849609375	45.50666046142583	-223.2768859863281	329.5668640136719	77.85465240478523	-308.2949523925781	-106.736198425293	955.2706298828126	-534.6581420898435	-76.51362609863281	661.0686035156251	-513.1799926757811	-126.0208969116211	691.2987060546876	-525.1317749023436	-156.9137573242188	595.9927368164064	-491.3982543945311	-94.52424621582031	585.0417480468751	-487.1759338378905	-195.2595825195312	328.1202087402345	-465.7987976074218	-255.1679229736328	319.7077941894532	-465.4108886718749	-275.7233581542969	236.6792297363282	-443.8088684082031	-211.9446716308594	230.079818725586	-437.9587097167968	-350.4744567871094	62.2866516113282	-363.6340637207031	-180.8767242431641	20.06168937683115	-437.3677368164062	-142.1326751708984	27.52852630615242	-331.7376708984375	
